PathFileType	4	(X/Y/Z)	/Users/mathieubourgeois/Desktop/Analyse/Traitement/Sujet_02/Transformed_Static_Sujet_02_Tpose.trc
DataRate	CameraRate	NumFrames	NumMarkers	Units	OrigDataRate	OrigDataStartFrame	OrigNumFrames
120.000000	120.000000	6	36	mm	120.000000	231	308
Frame#	Time	RFHD			RANE			STRN			LANI			LKNE			T10			RHUM			RWRB			C7			LFWT			LTOE			RTOE			LWRA			LBWT			RBWT			RFWT			LKNI			RKNI			RKNE			LANE			RANI			LHEE			RHEE			LHUM			LRAD			RRAD			RWRA			LWRB			LFHD			LBHD			RBHD			RSHO			LSHO			CLAV			LCAR			RCAR			
		X1	Y1	Z1	X2	Y2	Z2	X3	Y3	Z3	X4	Y4	Z4	X5	Y5	Z5	X6	Y6	Z6	X7	Y7	Z7	X8	Y8	Z8	X9	Y9	Z9	X10	Y10	Z10	X11	Y11	Z11	X12	Y12	Z12	X13	Y13	Z13	X14	Y14	Z14	X15	Y15	Z15	X16	Y16	Z16	X17	Y17	Z17	X18	Y18	Z18	X19	Y19	Z19	X20	Y20	Z20	X21	Y21	Z21	X22	Y22	Z22	X23	Y23	Z23	X24	Y24	Z24	X25	Y25	Z25	X26	Y26	Z26	X27	Y27	Z27	X28	Y28	Z28	X29	Y29	Z29	X30	Y30	Z30	X31	Y31	Z31	X32	Y32	Z32	X33	Y33	Z33	X34	Y34	Z34	X35	Y35	Z35	X36	Y36	Z36	

232	1.925	-151.3226013183594	1793.762329101562	383.8738708496093	-225.9970397949219	102.0364456176758	237.5244750976562	-42.43901824951177	1413.871704101562	425.9851684570311	76.76425170898435	120.4728622436524	269.6679077148438	155.7555389404297	557.5597534179688	246.3569183349609	-45.92288970947268	1381.1748046875	176.8484649658202	-500.8698120117188	1510.526733398438	240.6086273193358	-779.3619384765625	1591.13330078125	265.0480346679685	-48.18299102783206	1621.343017578125	226.6071319580077	89.75048828124994	1109.716674804688	408.1714172363281	172.959976196289	59.04302597045901	457.3310241699219	-252.4976043701172	59.77389907836917	459.5434570312499	712.1766967773438	1497.176147460938	317.4229125976562	15.12293529510495	1144.31982421875	225.8106079101562	-106.1191024780274	1146.673828125	227.466079711914	-187.3529815673829	1121.237548828125	404.6146240234374	61.97887420654293	517.3165893554688	279.3928833007812	-132.2886657714844	527.5079345703125	291.1674804687499	-222.6058349609375	580.17822265625	253.6678009033203	160.248306274414	101.6894226074219	229.7724914550782	-145.3113098144532	119.786361694336	279.0322265625	105.5956954956054	70.50164031982423	177.4163208007812	-161.9127349853516	64.62711334228517	186.7132415771484	430.0791625976562	1466.908203125	323.5792541503906	438.2273254394531	1521.8017578125	276.4467468261718	-504.4190063476563	1466.44775390625	306.5301513671873	-774.7861938476562	1532.924194335938	231.9474029541014	706.8917846679688	1560.713134765625	351.0677795410156	-8.333831787109427	1794.098876953125	422.0623168945311	27.14504241943356	1747.140014648438	282.2997436523436	-132.2985534667969	1745.878295898438	255.8258666992186	-212.362289428711	1596.789794921875	262.5769042968749	121.6836929321289	1615.763671875	287.266143798828	-32.35153579711919	1588.709350585938	382.1298828124999	817.9921264648438	1532.518310546875	312.1493225097656	-884.6927490234375	1564.150024414062	216.1907653808592	
233	1.933333333333333	-151.2770080566407	1793.760864257812	383.9319458007811	-226.0007781982422	102.0297317504883	237.5233764648437	-42.44743347167974	1413.868530273438	426.0379638671874	76.77624511718747	120.4720840454102	269.652099609375	155.7413787841797	557.5538940429688	246.3906402587891	-45.95462799072268	1381.166381835938	176.9013061523437	-500.8647766113282	1510.56591796875	240.6856842041014	-779.3477172851562	1591.17578125	265.1169433593748	-48.18202590942386	1621.34619140625	226.6358947753905	89.73200988769526	1109.721923828125	408.2258300781249	172.9549713134765	59.03325271606448	457.3297424316406	-252.4865722656251	59.78188705444339	459.5526123046874	712.1697998046875	1497.159912109375	317.3648681640625	15.11744403839108	1144.358154296875	225.8666992187499	-106.1537170410157	1146.68359375	227.5451507568359	-187.3624877929688	1121.233154296875	404.6508789062499	61.96229171752926	517.3297119140625	279.4382324218749	-132.308578491211	527.5107421875	291.2020568847656	-222.6235046386719	580.1719970703125	253.6832122802734	160.2446899414062	101.7090530395508	229.7666931152344	-145.3216705322266	119.789680480957	279.0460205078125	105.6237564086914	70.51525878906251	177.4138488769531	-161.9077453613282	64.64770507812501	186.7077178955078	430.0511474609374	1466.888549804688	323.6106872558593	438.2294006347656	1521.807739257812	276.4444580078124	-504.4287414550782	1466.475463867188	306.6281433105467	-774.7891235351562	1532.969848632812	232.0352172851561	706.9039306640625	1560.70263671875	350.98193359375	-8.304976463317923	1794.092529296875	422.0827331542968	27.11825180053707	1747.109619140625	282.2990112304686	-132.2953033447266	1745.87109375	255.8905487060545	-212.361312866211	1596.776611328125	262.6087341308593	121.6734313964843	1615.740844726562	287.2852478027343	-32.34456253051763	1588.696533203125	382.1842346191405	818.0015869140625	1532.481567382812	312.1234130859375	-884.6989135742188	1564.193237304688	216.2830505371092	
234	1.941666666666667	-151.2575683593751	1793.751953125	383.9935607910155	-225.9939270019532	102.026351928711	237.5211486816406	-42.44456100463872	1413.869506835938	426.0579223632811	76.77838897705075	120.4701614379883	269.6727600097656	155.7236175537109	557.5638427734375	246.4204864501953	-45.95950317382815	1381.166625976562	176.951202392578	-500.8730468750001	1510.599609375	240.7519683837889	-779.34521484375	1591.221557617188	265.1859436035154	-48.18070983886722	1621.325561523438	226.6662139892577	89.70260620117182	1109.724243164062	408.2905883789062	172.9454956054687	59.03170013427737	457.3265686035156	-252.4811553955079	59.78418731689456	459.5372619628906	712.1871948242188	1497.157470703125	317.2899780273438	15.09996509551999	1144.367065429688	225.9119262695312	-106.179313659668	1146.682983398438	227.6091613769531	-187.3868255615235	1121.2412109375	404.7247619628906	61.9615440368652	517.3634643554688	279.4748840332031	-132.3179321289063	527.5108032226562	291.2051391601562	-222.6324462890625	580.1788940429688	253.7204895019531	160.2535095214843	101.7252807617188	229.7693176269532	-145.3194122314453	119.7977066040039	279.0452575683594	105.6130981445312	70.51265716552736	177.4103393554688	-161.9015350341797	64.64620208740236	186.712890625	430.0573120117187	1466.874633789062	323.6106262207031	438.2247924804687	1521.790405273438	276.4214782714843	-504.4356079101563	1466.501098632812	306.7227783203123	-774.7941284179688	1533.024658203125	232.0983734130858	706.9030151367188	1560.694091796875	350.9418640136719	-8.279491424560598	1794.069702148438	422.1265869140624	27.12110900878903	1747.129638671875	282.3256225585936	-132.2821197509766	1745.894165039062	255.9190521240233	-212.3507080078125	1596.767456054688	262.6541137695311	121.6743011474609	1615.730712890625	287.3186035156249	-32.33418273925786	1588.7001953125	382.2141723632811	818.0112915039062	1532.489135742188	312.0631408691406	-884.69970703125	1564.226318359375	216.3827819824217	
235	1.95	-151.2277526855469	1793.779541015625	384.0390624999999	-225.9914703369141	102.0379867553711	237.52783203125	-42.4349975585938	1413.892333984375	426.0845642089843	76.77902221679685	120.4622497558594	269.6788940429688	155.6915893554687	557.5665893554688	246.4485473632812	-45.98949813842776	1381.159057617188	177.0025634765624	-500.8737182617188	1510.63525390625	240.8510131835936	-779.3265991210938	1591.261962890625	265.2683105468748	-48.18429183959964	1621.315307617188	226.7095489501952	89.67196655273432	1109.739624023438	408.3512573242187	172.9482879638671	59.04439544677737	457.3292236328125	-252.4949188232422	59.79916000366214	459.5405273437499	712.204345703125	1497.138549804688	317.1934204101562	15.06559181213376	1144.37890625	225.9566955566406	-106.199577331543	1146.715576171875	227.6439819335937	-187.4141845703126	1121.253051757812	404.7633361816406	61.94889068603512	517.36181640625	279.4987792968749	-132.3352966308594	527.5213012695312	291.2310791015624	-222.6584930419922	580.1817016601562	253.7223815917968	160.2539367675781	101.7487258911133	229.7649993896485	-145.3228149414063	119.8143692016602	279.0419311523438	105.5994644165039	70.52931213378908	177.4232330322266	-161.9015197753907	64.6516799926758	186.7122650146484	430.0603332519531	1466.872192382812	323.6019592285156	438.2223510742187	1521.789916992188	276.4039611816406	-504.4382629394532	1466.547607421875	306.8190002441405	-774.8069458007812	1533.040283203125	232.187057495117	706.9241333007812	1560.680053710938	350.8823852539062	-8.244473457336477	1794.076293945312	422.1600952148436	27.1527004241943	1747.1298828125	282.3187255859374	-132.2665710449219	1745.901000976562	255.9562530517577	-212.3476715087891	1596.762573242188	262.6963806152343	121.6614685058593	1615.726318359375	287.355987548828	-32.33955383300786	1588.714599609375	382.2662353515624	818.0103149414062	1532.477905273438	312.00830078125	-884.7113647460938	1564.24951171875	216.4851379394529	
236	1.958333333333333	-151.184066772461	1793.770263671875	384.095489501953	-226.0088195800782	102.034782409668	237.5164794921875	-42.44557952880864	1413.892944335938	426.1428833007811	76.78857421874997	120.4719467163086	269.6828918457031	155.6849365234375	557.597412109375	246.4704132080078	-46.00168228149416	1381.151245117188	177.047149658203	-500.8908081054688	1510.65576171875	240.9132995605467	-779.3336791992188	1591.29541015625	265.353576660156	-48.19939804077151	1621.306762695312	226.7505645751952	89.63683319091791	1109.74609375	408.3974304199218	172.9494628906249	59.05234527587893	457.317138671875	-252.4953613281251	59.79931259155276	459.5311889648437	712.214599609375	1497.157104492188	317.0840148925781	15.04069423675534	1144.373413085938	226.0005950927734	-106.2246017456055	1146.704711914062	227.7087707519531	-187.4474639892579	1121.251342773438	404.7966918945312	61.92436218261715	517.364013671875	279.5096130371093	-132.3573760986328	527.5305786132812	291.2543945312499	-222.6741333007813	580.1884155273438	253.7315063476562	160.2408905029297	101.7636489868164	229.7664642333985	-145.3292694091797	119.8269653320313	279.0463562011719	105.6006088256836	70.51942443847658	177.4199371337891	-161.8894805908203	64.65042877197267	186.7071685791015	430.0950012207031	1466.8818359375	323.5590209960937	438.1971740722656	1521.784301757812	276.3923645019531	-504.4411926269532	1466.598999023438	306.9080200195311	-774.8195190429688	1533.075317382812	232.2719726562498	706.9559326171875	1560.885498046875	350.75830078125	-8.208369255065969	1794.089599609375	422.1702270507811	27.16349601745602	1747.1318359375	282.3522033691405	-132.2682037353516	1745.9033203125	255.9906616210936	-212.3450469970703	1596.76318359375	262.7591247558593	121.6710510253906	1615.718139648438	287.3912353515624	-32.33765792846685	1588.729125976562	382.3035278320311	818.0084228515625	1532.4814453125	311.9435119628906	-884.71337890625	1564.27490234375	216.6015014648436	
237	1.966666666666667	-151.3768615722657	1794.02197265625	384.0388183593749	-226.0098571777344	102.0290832519531	237.5057220458984	-42.43753051757817	1413.886962890625	426.212677001953	76.775276184082	120.4589233398438	269.6701965332031	155.6675567626953	557.6133422851562	246.5103759765625	-46.01696777343752	1381.145629882812	177.0995025634765	-500.8759460449219	1510.685791015625	240.9768829345702	-779.3170776367188	1591.317626953125	265.4171447753904	-48.21224212646487	1621.306030273438	226.8180389404296	89.59980773925776	1109.734252929688	408.4510498046874	172.9547424316406	59.04689788818362	457.3145751953125	-252.5041198730469	59.80847167968753	459.5340576171874	712.2341918945312	1497.152709960938	316.9857177734375	15.032431602478	1144.365356445312	226.0457611083984	-106.2491989135742	1146.723999023438	227.7463226318359	-187.4795074462891	1121.243896484375	404.8501892089843	61.90959930419918	517.338623046875	279.5441284179687	-132.3755187988282	527.5347290039062	291.2505493164062	-222.7020263671875	580.1923828125	253.7630462646484	160.2380218505859	101.7556076049805	229.765121459961	-145.3191986083985	119.8263702392578	279.0318908691406	105.6055221557617	70.53282165527345	177.4008483886719	-161.9085235595703	64.63033294677736	186.7108306884765	430.0975646972656	1466.854858398438	323.5404357910156	438.1966247558593	1521.776611328125	276.3676452636718	-504.4513854980469	1466.655883789062	307.0075683593748	-774.8236083984375	1533.075805664062	232.339889526367	706.9564208984375	1560.628051757812	350.8311157226562	-8.16863250732427	1794.074340820312	422.1985778808593	27.17220306396481	1747.117065429688	282.3565979003905	-132.2777709960938	1745.910034179688	256.036163330078	-212.3479156494141	1596.796508789062	262.8255004882811	121.6672134399414	1615.708374023438	287.4380798339843	-32.33444213867192	1588.731811523438	382.3558959960936	818.0232543945312	1532.494995117188	311.86572265625	-884.7314453125	1564.314453125	216.7095336914061	
